PathFileType	4	(X/Y/Z)	C:/Users/opensim2020/Desktop/walking_exp_matlab/subject01_walking09_straight_04.trc																																																																																																																															
DataRate	CameraRate	NumFrames	NumMarkers	Units	OrigDataRate	OrigDataStartFrame	OrigNumFrames																																																																																																																											
100	100	4	43	mm	100	4033	292																																																																																																																											
Frame#	Time	LFHD			RFHD			LBHD			RBHD			C7			T10			CLAV			STRN			RBAK			LSHO			LUPA			LELB			LFRM			LWRA			LWRB			LFIN			RSHO			RUPA			RELB			RFRM			RWRA			RWRB			RFIN			LASI			RASI			LPSI			RPSI			LTHI			LKNE			LTIB			LANK			LHEE			LTOE			RTHI			RKNE			RTIB			RANK			RHEE			RTOE			*39			*40			*41			*42		
		X1	Y1	Z1	X2	Y2	Z2	X3	Y3	Z3	X4	Y4	Z4	X5	Y5	Z5	X6	Y6	Z6	X7	Y7	Z7	X8	Y8	Z8	X9	Y9	Z9	X10	Y10	Z10	X11	Y11	Z11	X12	Y12	Z12	X13	Y13	Z13	X14	Y14	Z14	X15	Y15	Z15	X16	Y16	Z16	X17	Y17	Z17	X18	Y18	Z18	X19	Y19	Z19	X20	Y20	Z20	X21	Y21	Z21	X22	Y22	Z22	X23	Y23	Z23	X24	Y24	Z24	X25	Y25	Z25	X26	Y26	Z26	X27	Y27	Z27	X28	Y28	Z28	X29	Y29	Z29	X30	Y30	Z30	X31	Y31	Z31	X32	Y32	Z32	X33	Y33	Z33	X34	Y34	Z34	X35	Y35	Z35	X36	Y36	Z36	X37	Y37	Z37	X38	Y38	Z38	X39	Y39	Z39	X40	Y40	Z40	X41	Y41	Z41	X42	Y42	Z42	X43	Y43	Z43
																																																																																																																																		
147	1.46	-171.50443	1659.42725	-1522.64429	-150.2677	1666.88049	-1411.34802	-291.21539	1627.96521	-1506.10364	-271.68219	1635.00452	-1386.66797	-338.15686	1426.14624	-1454.72632	-366.3645	1132.38843	-1431.97278	-193.86369	1360.28784	-1456.62219	-147.22812	1207.2948	-1454.7998	-387.23193	1234.55408	-1364.94226	-262.75626	1381.68652	-1616.72925	-302.1322	1195.50586	-1691.57617	-318.6539	1046.51477	-1688.00244	-289.04135	937.28839	-1713.42834	-219.10072	816.82166	-1694.15222	-274.508	815.86145	-1719.40784	-230.32645	744.33807	-1730.70361	-253.01772	1394.46521	-1304.00452	-300.44919	1197.94592	-1190.93555	-293.93246	1072.56677	-1182.84277	-252.66551	959.79443	-1149.31702	-161.49184	851.02979	-1170.05017	-201.27026	849.89355	-1127.18823	-156.28879	775.90216	-1128.27454	-186.61137	929.77283	-1533.64172	-198.38983	923.5036	-1317.43616	-376.16803	944.22357	-1491.60767	-379.47797	947.95685	-1347.146	-162.34285	608.51135	-1591.71204	-144.20642	476.69275	-1571.4552	-167.46768	287.51025	-1581.57349	-160.38097	69.10181	-1527.43359	-200.12663	39.03251	-1471.98254	-11.70391	37.6385	-1531.82776	-293.53049	593.89758	-1266.93115	-314.51187	434.32889	-1285.62122	-450.07065	319.03525	-1284.14343	-578.02637	153.64502	-1330.82629	-633.73114	150.23695	-1384.32666	-492.14618	37.11822	-1338.84998	-159.97591	1700.72583	-1434.276	-1973.17407	1023.31055	3101.99097	-2012.47815	1021.9707	3140.67041	NaN	NaN	NaN
148	1.47	-164.24182	1660.04858	-1525.04004	-143.19637	1667.63135	-1413.74292	-284.00818	1628.56067	-1508.62512	-264.75058	1635.81519	-1389.31323	-330.86343	1426.87354	-1457.12671	-359.27676	1133.24292	-1434.00793	-186.70311	1361.0177	-1458.7124	-140.05667	1208.0896	-1456.85596	-380.12729	1235.49536	-1367.06763	-255.31287	1382.35535	-1618.88147	-294.08652	1196.15564	-1693.92261	-310.13351	1046.99548	-1690.33411	-279.67679	937.92236	-1715.63074	-208.81296	818.10059	-1696.05945	-264.10095	816.61603	-1721.49536	-218.39438	745.5365	-1732.44873	-245.95203	1395.47205	-1306.28027	-294.69888	1199.31482	-1193.08557	-288.93213	1073.93347	-1185.1814	-248.22514	960.80182	-1151.35986	-157.07236	851.84082	-1171.71765	-197.12744	850.73297	-1129.08447	-152.67087	776.3844	-1130.21887	-180.88634	929.7627	-1535.76013	-190.91512	924.71893	-1319.63306	-369.10068	945.06335	-1493.29065	-372.27466	948.75555	-1348.67847	-158.57388	607.96613	-1592.93994	-140.43832	476.25891	-1572.39697	-165.09268	287.06219	-1581.62476	-159.97417	68.9325	-1527.11597	-200.1151	39.11422	-1471.93518	-11.38744	37.22683	-1531.72192	-280.31018	593.65399	-1267.23206	-299.46652	433.95425	-1285.13855	-437.88876	321.72754	-1284.37463	-568.85986	159.664	-1331.1156	-624.00037	158.90948	-1385.45081	-490.8558	37.72596	-1339.80896	-152.69524	1701.57422	-1436.68799	-1973.14954	1023.41907	3101.97095	-2012.54565	1022.02136	3140.69067	NaN	NaN	NaN
149	1.48	-157.04364	1660.59436	-1527.38171	-136.16728	1668.34473	-1416.05762	-276.81934	1629.05713	-1511.05103	-257.80273	1636.39734	-1392.01733	-323.71313	1427.54968	-1459.37415	-352.37466	1133.98315	-1436.14819	-179.56284	1361.6449	-1460.79004	-133.07661	1208.72083	-1458.83252	-373.12994	1236.34851	-1369.28345	-247.90839	1382.93481	-1620.95068	-286.10944	1196.75342	-1696.27881	-301.60773	1047.4458	-1692.73987	-270.21481	938.54315	-1717.88928	-198.36055	819.34906	-1698.04822	-253.61357	817.40228	-1723.64441	-207.22069	746.71112	-1734.4281	-238.98802	1396.37878	-1308.39551	-289.06271	1200.59802	-1195.27136	-283.95737	1075.13989	-1187.1488	-243.83844	961.71313	-1153.37183	-153.2919	852.27228	-1173.53113	-193.34431	851.4433	-1131.10217	-149.16034	776.77704	-1132.1543	-174.24747	930.14948	-1537.76917	-184.23895	925.66589	-1321.92798	-362.17313	945.7655	-1494.97168	-365.29956	949.36121	-1350.28418	-154.78421	607.37506	-1594.22949	-137.04977	475.8309	-1573.44128	-163.16794	286.77405	-1581.98047	-159.65875	68.90205	-1527.01599	-199.92319	39.09304	-1471.74512	-10.92546	36.89426	-1531.67505	-267.00125	593.15747	-1267.50562	-284.28998	433.82416	-1285.09363	-425.18558	324.50522	-1284.72925	-559.58466	165.35875	-1331.90723	-613.59204	167.65477	-1386.43286	-488.81519	39.20117	-1340.50281	-145.83559	1702.15173	-1439.13489	-1973.11621	1023.46777	3101.97974	-2012.57324	1022.11639	3140.64111	NaN	NaN	NaN
150	1.49	-149.89139	1661.05823	-1529.66541	-129.23465	1668.94141	-1418.28186	-269.70178	1629.46521	-1513.4873	-250.84785	1636.9303	-1394.38782	-316.61667	1428.16589	-1461.52332	-345.57523	1134.68176	-1438.29163	-172.43845	1362.16956	-1462.70581	-126.20642	1209.18921	-1460.70251	-366.24261	1237.07983	-1371.49597	-240.59937	1383.40442	-1622.92578	-278.00745	1197.24402	-1698.55786	-293.03595	1047.75989	-1695.10327	-260.71146	939.07013	-1720.14343	-187.81793	820.49518	-1699.92224	-242.96965	818.07813	-1725.74878	-195.89795	747.742	-1736.26819	-231.95352	1397.09717	-1310.46545	-283.55905	1201.68994	-1197.45142	-278.95721	1076.13489	-1189.35583	-239.55119	962.53302	-1155.35986	-148.99454	852.84827	-1175.14197	-189.47169	851.99896	-1132.87415	-145.65524	777.0304	-1134.05847	-167.60635	930.49438	-1539.73853	-177.11026	926.68982	-1323.7616	-355.51944	946.32501	-1496.64807	-358.61725	949.71393	-1351.86072	-150.97899	606.88696	-1595.47363	-134.03745	475.46606	-1574.58801	-161.61511	286.53873	-1582.4043	-159.45058	68.83551	-1526.89575	-199.8138	39.05867	-1471.64404	-10.4616	36.68056	-1531.69263	-253.52739	592.79486	-1267.75867	-268.97449	433.61847	-1285.13696	-411.62943	327.28525	-1285.25232	-549.27478	171.06354	-1332.43323	-602.9436	175.84224	-1386.95081	-486.19778	41.36936	-1342.02588	-138.62053	1702.81641	-1441.3645	-1973.20386	1023.46521	3101.90015	-2012.56958	1021.96399	3140.60718	NaN	NaN	NaN
